<?xml version="1.0" encoding="UTF-8"?>
<!-- Generator: Adobe Illustrator 18.1.1, SVG Export Plug-In . SVG Version: 6.00 Build 0)  -->
<svg version="1.1" id="Layer_1" xmlns="http://www.w3.org/2000/svg" xmlns:xlink="http://www.w3.org/1999/xlink" x="0px" y="0px" viewBox="0 0 181.2 78" enable-background="new 0 0 181.2 78" xml:space="preserve">
<g>
	<g>
		<path fill="#010101" d="M180.9,10c0-1.1,0-2,0.2-3.1c-0.1-0.4-0.5-0.4-0.8-0.5c-0.3,0-0.5,0-0.8,0l0.1-1.5l0-0.4    c-0.3-1-1.2-1.3-1.5-1.4L177.9,3L177.6,3l-3.8,0.1l-3.3,0.1c-0.1,0-2.7,0.3-2.7,0.3s-1.1,0.2-1.3,0.2c-0.4,0-2-0.2-2-0.2l-2.2-0.3    l-0.2,0l-5.3,0l-0.4,1C156.1,5,156,5.9,156,6.8c0,0.2,0,0.4,0,0.7L156,9c-0.1-0.2-0.2-0.4-0.4-0.7l0.3-1.3l-1.4-0.3c0,0,0,0,0,0    c-0.4-0.9-0.8-1.8-1.6-2.6l-0.2-0.2l-0.4-0.1l-1-0.3c-0.8-0.3-1.7-0.6-2.7-0.5c0,0-2.3,0.2-2.3,0.2c-1.2,0.1-2.3,0.3-3.3,0.1    c-1.6-0.3-3.1-0.1-4.6,0.1c0,0-2,0.2-2,0.2c-0.8,0-1.5,0.6-1.7,1.5c0-0.2,0-0.3,0-0.5l0-0.1l0-0.1c-0.1-0.4-0.3-1.3-1.7-1.5    l-0.1,0h-0.2l-1.1,0.1c-1.2,0.1-2.3,0.2-3.4,0.2l-0.1,0l-0.1,0c-0.4,0-0.9-0.1-1.4-0.4l-0.3-0.1l-0.1,0L124.2,3l-1.6,0.1    c0,0-0.1,0.1-0.2,0.2c0,0,0-0.1,0-0.1l-1,0.1c-1.3-0.1-2.8-0.2-4.1,0l-0.1,0l-0.1,0c-0.7,0.2-1.6,0.2-2.5,0.2l-1.4,0l-0.1,0    c-0.3,0.1-1,0.3-1.2,1.4c0,0,0-0.1,0-0.1c0-0.4-0.2-1.1-1.2-1.4l-0.2-0.1l-0.3,0l-5-0.1l-0.1,0c0,0-3.1,0.4-3.3,0.4    c-1.2-0.3-2.3-0.4-3.6-0.3c-0.1,0-2.1,0.1-2.1,0.1c-1.6,0-3.2,0-4.7,0.8l-0.6,0.3l-0.1,0.6c0,0.1,0,0.2,0,0.3c0-0.3,0-0.6,0-0.9    l0-0.1l-0.1-0.2c-0.1-0.3-0.3-1.3-1.3-1.6c-2.2-0.6-4.3-0.2-6.3,0.2L82,2.9c-1.2,0.3-2.3,0.3-3.5,0.2l-3,0h0.3l-0.5-0.1    c-1.4-0.1-3.2-0.3-4.8,0.5l-0.7,0.4l0,2c0,0.3-0.1,0.6-0.1,0.9c-0.1,0-0.1,0-0.2,0V6.6c0-0.8,0.1-2.7-1.8-3.1    c-1.3-0.2-3.2-0.4-5,0c-1.1,0.3-2.2,0.3-3.4,0.3l-3,0.2C55.5,4.2,54.7,4.1,54,4c-1.2-0.2-2.5-0.4-3.9,0.3l-0.7,0.3l-0.1,0.7    c-0.1,1.4-0.2,2.8-0.2,4.2c0,0.1,0,0.2,0,0.4c-0.1,0.2-0.2,0.4-0.3,0.5c-0.1-0.1,0-0.6-0.1-0.7c0-0.4-0.2-0.8-0.3-1.1    c-0.1-0.6-0.2-1.1-0.4-1.6L47.2,5c0,0-0.3,0.3-0.6,0.6c-0.3-0.7-0.6-1.3-1-1.8l-0.4-0.6l-0.5-0.1c-1.5-0.4-2.9-0.3-4.3-0.2    l-1.8,0.1C38.7,2.9,37,3,37,3c-0.8,0.1-1.6,0.1-2.3,0l-0.1,0l-0.1,0c-1,0.1-2.1,0.2-3.2,0.5c-0.4,0.1-0.8,0-1.3-0.1    c-0.8-0.1-1.8-0.3-2.8,0.1l-0.7,0.2c-0.1,0-0.2-0.1-0.3-0.1C26,2.8,25.8,2,25.4,1.2L25.2,1l-0.3-0.2c-0.7-0.5-1.4-0.6-2.1-0.7    L22.6,0h-0.1c-3.1,0-5.9,0.2-8.4,0.7c-0.9,0.1-1.9-0.1-2.9-0.2L9.9,0.2C7,0.1,4.1,0.1,1.6,1L0.9,1.2L0.8,2    C0.6,3.4,0.5,4.9,0.5,6.2c0,0.6,0,1.2,0.1,1.8c0,0.1-0.2,3.8-0.2,3.8c-0.1,1.9-0.3,3.9-0.3,6c0,0.5,0,1.1,0,1.6    C0,19.5,0.1,20,0.1,20l0.8,4.2c0,0,0.1-0.1,0.1-0.1c0,0.6-0.1,2.9-0.1,2.9l-0.3,6.4c0,0-0.1,3.6-0.1,3.6l-0.1,4.9    c0,0.1-0.1,3.4-0.1,3.4l-0.1,3.2c0.1,3.8,0.5,7.6,1.2,11.9c0.1,1.4,0.2,2.7,0.6,4c0.3,0.8,0.4,1.6,0.5,2.4    c0.1,0.9,0.3,1.9,0.6,2.8l0.2,0.5l0.5,0.2c0.3,0.1,0.5,0.1,0.8,0.1c0,0.1,0.1,0.2,0.1,0.3c0.2,0.9,0.4,1.9,0.9,2.8    c0.3,0.8,0.7,1.4,1.2,1.9L8,77l0.8,0.2c0.9,0,1.3-0.6,1.4-0.9c0,0,0-0.1,0.1-0.2c0.4,0.6,1,1.2,1.3,1.9c0.1,0,0.2,0,0.2-0.1    c0.5-1.1,0.7-0.8,1.2-1.1c0.1-0.1,0.2-0.1,0.2-0.2c0,0.1,0,0.1,0,0.1l0.9-1c0.1,0.4,0.3,0.8,0.4,1.2c0.1,0,0.1,0,0.2,0    c0.4-0.7,0.5-1.2,1.3-1.6c0.1-0.9,0.5-1.7,0.9-2.4c0.7,0.5,0.6,1.3,0.6,2.2l0.1,0l1.1-1.4c0.3-0.1,0.5-0.4,0.8-0.7    c1.8-1.3,2.5-3.5,3.5-5.4c0.7-1.1,1-2.4,2-3.2c0.2-1.3,0.4-2.6,0.9-3.8c0.6-1.9,0.5-4.1,0.7-6.2c0-0.5,0-0.9,0-1.3h0.1l0.3,3.2    l0.1,0.2c0.3,0.5,0.3,1.3,0.4,2.2c0,0,0.1,0.8,0.1,1c0,0.1,0,0.3,0,0.4c0,1.8,0.4,3.4,0.8,4.9l0.7,2.5l0.8,0.2    c0.2,0,1.3,0.2,1.7-1.3c0-0.1-0.1,0.1-0.1,0.1l0-0.1l0.2-0.3l0.2-0.5c0-0.1,0.1-0.2,0.1-0.3c0.3,1.1,0.6,2.1,0.8,3.2    c0.2,0,0.2-0.4,0.4-0.6c0.2-0.7,0.7-1.3,0.6-2.1l0.7-1.3c0.1,0.3,0.1,0.7,0.2,1c0.1,0,0.2,0,0.2-0.1c0.4-1.6,0.7-1.4,1.1-2.1    c0.6-1.6,0.2-3.5,0.6-5.2l-0.1-0.7c0.2,0.2,0.5,1,0.8,1c0.1-0.7,0.6-1.2,0.9-1.8c0.5-1.3,0.5-2.8,0.6-4.3l0.8,2.1    c0,0,0.2-0.3,0.4-0.6c0,0.1,0.1,0.3,0.1,0.3s0.7,2.1,0.7,2.2c0.2,0.5,0.6,0.9,1.4,1.1c0.2,0.5,0.4,0.9,0.6,1.1    c0.2,0.3,0.3,0.4,0.4,0.8l0.1,0.3l0.2,0.3c0.7,0.9,1.6,1.1,2.3,1.3c0.3,0.1,0.6,0.1,0.7,0.2c0.2,0.4,0.6,0.8,1.2,0.9l1.5,0.1    l0-0.3c0.4,0.1,0.7,0.2,1,0.5c0.1,0.1,0.4,0.6,0.4,0.5c-0.1-1.4-0.1-3.2,0-4.8c0.2,0.6,0.6,1.3,1.5,1.6l0.3,0.1l0.1,0l1.9-0.5    c0.1,0.5,0.2,1.2,0.7,1.3c1.2-0.1,2.2-0.7,3.3-0.9c0.9-0.1,1.8-0.6,2.7-0.2c0.7,0.6,1.8,0.4,2.7,0.6l0.7-0.1c0.2,0.3,0.7,1,0.7,1    l0.9,1.2l0.8-1.3l0.5-0.4l0,0c0.3,0.3,0.6,0.6,0.9,0.8c0.2,0.3,0.2,0.7,0.5,0.9l0.1-0.1c0.2-0.9,0.2-1.9,0.4-2.8    c0-0.8-0.2-1.5-0.3-2.4c0.5-1.7,0.5-3.8,0.2-5.6c0-1.2,0.2-2.5-0.4-3.4c-0.2-0.2-0.4,0.1-0.6,0.1c-0.1-0.1-0.2-0.2-0.4-0.2    c-0.1,0-0.1,0.1-0.2,0.1c0-0.9-0.1-1.9-0.6-2.8l-0.1-0.2L67,44.6c-0.2-0.2-0.8-0.5-1.5-0.3c-0.2-0.1-1-0.3-1-0.3l0.1,0.3L64,44.7    c0,0-0.3,0.2-0.5,0.3c-0.3-0.3-0.6-0.7-0.6-0.7l-0.9-1l-0.2,0.4c0-0.2,0-0.4,0-0.6l0.1,0.4c0,0,0.6-2,1-3.3    c0.1,0.3,0.3,0.6,0.6,0.7c0.4,0.3,0.9,0.3,1.4,0.1l0.3-0.1l0.2-0.3c0.1-0.2,0.2-0.4,0.3-0.5c0.4,0.3,1,0.4,1,1.2    c0,0.3,0.1,0.8,0.4,0.6c0.6-0.8,0.7-1.8,0.7-2.9c0.1-1.2,0.6-2.2,0.5-3.5c-0.6-2-0.7-4.2-0.6-6.4c-0.1-0.6-0.5-1-0.9-1.4    c-0.1-0.1-0.1-0.1-0.2-0.1v-0.3l0.9-0.2c0.4-0.1,0.7-0.3,0.9-0.6c0.4,0.3,0.9,0.6,1.3,0.9l0.3,0.5l0,0.2c0,0.1,0.1,2.3,0.1,2.3    s0.1,2.3,0.2,2.5c-0.1,0.3-0.9,4.7-0.9,4.7c0,0,0,2.7,0,2.7s0,1.6,0,1.6c0,1.4,0.3,2.5,0.5,3.5c0,0.1-0.1,3.5-0.1,3.5    c0,0.8-0.1,1.7-0.1,2.5c0,1.1,0.1,2.3,0.4,3.4c0-0.1,0.1,1.4,0.1,1.4l0.2,2.2c0.3,1,0.9,1.2,1.3,1.2l0.8,0.1l1-1.4    c0.1,0,0.6-0.4,0.8-0.5c0,0.8,0,1.6,0.2,2.4c0,0.1,0.1,0.2,0.2,0.3c0.9-1.4,1-1,1.6-1.5c0.1-0.4,0.1-0.9,0.3-1.3    c0.2,0.1,0,0.5,0.3,0.5c0.3-0.2,0.3-0.7,0.6-0.9c0.2-0.2,0.2-1.5,0.4-1.6c0.2,0.1,0.1,1.3,0.3,1.3c0.6-0.3,0.7-1,1.2-1.5    c0.6-1,0.6-2.2,0.8-3.4c0.5-0.4,1.3-0.7,1.2-1.7c0-0.6,0.1-1.1,0.2-1.7c0.3,0.6,0.6,1.2,1,1.8c0,0,0.1,0.2,0.3,0.5    c0,0.3,0,1.1,0,1.1c0,0.1,0,0.3,0,0.4c0,0.8,0.2,1.3,0.4,1.8c0.2,0.4,0.3,0.8,0.3,1.2c0,0.1,0,0.2,0,0.3l0,0.2l0.4,1.5l0.3-0.1    l2.5,0.5l-0.2-1.5c0,0,0.1-0.4,0.1-0.4c0,0,0.1-0.1,0.1-0.1l0.4-0.4c0.2,0.7,0.6,1.3,0.5,2.5l0.1,0.5c0.1,0,0.2,0.1,0.3,0    c0.1-1.3,0.6-1.3,1.1-1.8c0.7-0.7,0.5-1.8,1.1-2.4c0.3,0.2,0.2,0.7,0.5,0.6c0.1-1.9,0.9-2.1,1-3.3c0.2-0.5,0.8-0.6,0.9-1.1    c0.5-2.2,0.5-4.6,1.1-6.7c0.1-2.4-0.4-4.7-0.7-7c-0.6-2.4-0.6-5.2-0.7-7.8c0-0.2,0-0.3,0-0.5c0,0,0.1,0,0.1,0l0.7,0l0.1-0.3    l0.8-1.1l-0.1,0c0.1-0.5,0.3-1,0.4-1.4c0,0.4,0.1,0.8,0.2,1.1c0,2.2,0,5.1,0,5.1l0,1.8c0,0,0.4,1.8,0.4,2.1c0,0.2,0,1.3,0,1.3    c0,0.7,0,1.4,0,2c0,2,0.1,3.9,0.6,5.8c0.1,0.3,0.1,0.7,0.1,1.1c0,0.5,0,1-0.1,1.5l-0.1,2.2c0,0.1,0,0.2,0,0.4c0,1.5,0.3,3,0.6,4.4    l0.6,3.4l0.1,0.3l0.5,0.9l0.7,0.1c0.8,0.1,1.3-0.4,1.5-0.8l0.1-0.3c0,0,0-0.5,0-0.5c0.2-0.2,0.5-0.5,0.5-0.5l0.1-0.1    c0.2,0.9,0.4,1.8,0.4,2.7l0.2,0.3c0.1,0,0.2,0,0.2,0c-0.1-1.2,0.5-1.1,0.8-1.5c0.3-1,0.5-1.9,0.8-2.9c0.4,0.1,0,0.9,0.4,0.9    c0.4-1,0.5-2.1,0.7-3.2l0.1-0.2c0.2,0.4,0.1,0.8,0.2,1.2c0,0.1,0.1,0.3,0.3,0.2l0.7-1.1c0.8-1.8,0.6-3.3,1.1-5    c0.1-0.8-0.1-1.7,0.1-2.5c0.4-1.1,1-2.1,1.3-3.2c0.1-1.3-0.3-2.6-0.2-3.9c-0.4-2.9,0.2-5.6,0-8.5c0.2-0.9,0.4-1.8,0.6-2.7    c0-0.1,0-0.2,0-0.2c0,0.1,0.1,0.1,0.1,0.2l0.2,0.3l0.3,0.2c0.6,0.3,1.4,0.2,1.9-0.4l0.3-0.4l0-0.5c0-0.3,0-0.5,0.1-0.8    c0.2,0.1,0.4,0.3,0.5,0.5c0.1,0.7,0.2,1.4,0.4,2.1c0,0.1,0,0.1,0,0.2c0,1.5,0,2.9,0.1,4.4c0,0.1,0.1,1.6,0.1,1.6    c0.1,1.3,0.2,2.6,0.6,3.9c0,0.3,0.2,0.7,0.5,1c0.3,1.9,0.5,3.8,0.5,5.7c0,0.2,0,0.4,0,0.6v0.1l0,0.1c0.4,2.5,1,4.8,1.8,6.7    l0.1,0.2l0.2,0.2l0.2,0.3c0.2,0.3,0.7,0.9,1.5,1.2c0.1,0.2,0.2,0.5,0.2,0.8l0.1,0.4l0.3,0.9c0.2,0.8,0.5,1.7,1.1,2.5l0.1,0.2    l0.2,0.1c0.3,0.2,1,0.3,1.6-0.1c0.2,0,0.4,0,0.4,0c0.3,0,0.6-0.1,0.8-0.2c0.2,0.5,0.3,0.9,0.7,1.3c0.1,0.1,0.2-0.1,0.3-0.2    c0.2-0.6,0.2-1.4,0.6-1.9h0.1c0.3,0.5,0.2,1.2,0.3,1.7l0.1,0.1c0.1,0,0.2,0,0.3-0.1c0.4-1.7,1.8-2.3,2.4-3.6    c0.3-1.5,0.6-2.9,1.1-4.2c0.2-0.3,0.2-0.7,0.5-0.9c0.1,0.2,0,0.6,0.3,0.6c0.6-0.5,0.7-1.3,1.3-1.8c0.9-0.9,1.2-1.9,1.7-2.8    c0.5-2.1,1.3-4.2,1.6-6.4c0.2-2.7,0.7-5.3,0.6-8.2c0.1-2.7-0.2-5.9,0.5-8.3c0.1,0,0.3,0.1,0.4,0.1c-0.1,1.6-0.2,3.2-0.4,4.7    l-0.3,3.6l0,0.1l0.2,0.8c0,0,0.2,1,0.2,1.1c0,0.2-0.2,2-0.2,2l-0.4,4.3c-0.1,0.7-0.1,1.5-0.1,2.2c0,1.4,0.1,2.8,0.2,4.2    c0,0,0.2,3.1,0.2,3.1c-0.1,0.9-0.2,1.8-0.2,2.8c0,1.4,0.1,2.9,0.4,4.5c0,0,0.2,2,0.2,2c0.1,1.2,0.2,2.4,0.5,3.6l0.2,0.7l1.9,0.6    l0.4-0.8c0,0,0.3-0.6,0.5-1.1c0.2,0.1,0.5,0.2,0.7,0.2c0.1,0.8,0.2,1.5,0.4,2.2l0.1,0c0.4-0.6,0.6-1.4,1-2.2    c0.2-0.5,0-1.2,0.4-1.5c0.1,0.4,0.1,0.8,0.2,1.2c0.1,0.3-0.2,0.7,0.2,0.8c1.2-2.4,1.6-1.6,2.2-2.6c0.3-1.3-0.1-2.6,0.6-3.6    c0.6-0.9,1-1.8,1.6-2.7c0-0.2,0.1-0.3,0.1-0.5c0.3,0.7,0.6,1.5,0.9,2.3l0.3,1c0.2,0.7,0.7,1,1,1.1c0,0,0,0,0,0    c0,0.1,0.1,0.7,0.2,1c0,0,0,0,0,0c0,1.1,0.5,2,0.8,2.7l0.3,0.6l0.2,0.2c0.1,0.1,0.2,0.1,0.3,0.1c0.2,1,0.4,2,0.7,2.9l0.1,0.4    l0.1,0l1.1,1c0.4,0.2,0.4,0.3,0.4,0.4l0.2,0.6l0.6,0.3c0.5,0.2,1,0.2,1.4-0.1l0.6-0.3l0-0.1c0.5,0.4,1.1,0.6,1.3,1.4    c0.1,0,0.3,0,0.3-0.1c0-0.3,0-0.6,0-1c0,0.1,0.1,0.3,0.1,0.4c0,0,0,0.2,0,0.2l1.1,2l0.1-0.3c1.3,0.4,2.7,0.9,4.1,1.5l0.3,0.1    l0.4,0l0.5,0c0.7,0.3,1.4,0.5,2.1,0.9c0.9-0.1,2-0.1,3-0.1c0.5-0.1,1.3,0.1,1.8-0.1c0.1,0.1,0.3,0.3,0.3,0.3l0.2,0.1    c0.3,0.1,0.6,0.1,0.9,0.1c0.2,0.1,0.4,0.2,0.5,0.3c0,0,0,0.1,0.1,0.1c0.1,0.1,0.2,0.1,0.3,0c0.2,0.1,0.4,0.1,0.6,0.1l0.5,0.1    l0.2,0c0,0,0,0,0.1,0l0.1,0.1c0,0,0.1,0,0.1,0c0.1,0.1,0.3,0.3,0.5,0.7c0.4,0.6,1,0.8,1.6,0.7c0.4-0.1,0.8-0.3,1-0.7    c0.5,0.2,0.9,0.6,1.4,1.4c0.1,0.1,0.3,0.1,0.3,0c0.2-0.9,0.2-2,0.1-3c0.1-1.2,0.1-2.4,0.4-3.5c0.5-2.1,0.4-4.5,0.6-6.8    c0.3-2.4-0.1-4.6-0.1-7c0-0.7,0.1-1.5-0.5-1.8c-0.3,0.3-0.6,0.5-1,0.8l-0.1-1.2c0,0,0-0.3,0-0.3c0-0.7,0-2-1.1-2.6l-0.8-0.4    l-0.8,0.6l-0.7,0.6c-0.7,0.5-1.6,1.2-2,2.4c0,0-0.1,0-0.1,0c-0.4-0.1-0.8-0.3-0.8-0.3c-0.8-0.3-1.4,0-1.8,0.1L170,55l-0.1,0    l-0.4,0.1c0-1.7,0.5-3.3,0.8-4.9c0.3-1.5-0.4-2.7-0.6-4.1c-0.2-0.5,0-1,0.2-1.5c0.3,0.3,0.6,0.5,1.1,0.6l0.9,0.2    c0,0,0.3-0.4,0.4-0.6c0,0,0,0,0.1,0c0,0.1,0.1,0.1,0.1,0.3l0,0.2l0.2,0.3l0.1,0.1l2.9,3c0,0-0.1-2.5-0.1-3c0.4,0.3,0.8,0.5,1,1.3    c0.2,0.2,0.3,0.6,0.5,0.7c0-0.6,0.5-1.1,0.5-1.8c-0.2-2.7,0-5.7,0.2-8.5l0.5-2.3c0.3-1.5-0.4-2.7-0.4-4.1l-0.2-0.3    c-0.3-0.3-0.7-0.3-1.1-0.3c0,0,0,0,0,0l-0.2-1.7l-0.1-0.4l-0.3-0.5l-0.2-0.1c-1-0.9-2.3-0.6-3-0.4c0,0-0.1,0-0.1,0    c-0.2,0-0.7-0.1-0.7-0.1l-1.7,0c0-0.5,0.1-0.9,0.2-1.3c0.1-1,0.2-2.1,0.4-3l1.3,2l0.1,0.2c0.5,0.6,1.2,0.6,1.4,0.6    c0.2,0.2,0.4,0.4,0.6,0.5c0.5,0.4,0.9,0.7,1.1,1.1l0,0.1l0.1,0.1c0.3,0.5,0.9,0.7,1.5,0.6c0.4-0.1,0.8-0.3,1-0.7    c0.5,0.4,1,0.8,1.3,1.5c0.1,0.1,0.3,0.1,0.4-0.1c0.6-1.4,0.4-3.1,0.5-4.7c0-1.6,0.7-3.1,0.2-4.7c0.1-1.9,0.1-3.7,0.2-5.6    c0-0.3,0.3-0.3,0.4-0.4C181,12,181.3,10.9,180.9,10z M81.7,23.6C81.7,23.6,81.7,23.6,81.7,23.6C81.7,23.6,81.7,23.6,81.7,23.6    C81.7,23.6,81.7,23.6,81.7,23.6z M81.6,26.4c-0.1,0.3-0.2,0.6-0.2,0.8c0-0.2-0.1-0.4-0.1-0.6c0-0.1,0-0.2,0-0.4    C81.4,26.2,81.5,26.3,81.6,26.4z M157.2,33.7c0,0.7,0,1.4,0,2c-0.1-0.1-0.1-0.2-0.2-0.3c-0.3-0.2-0.6-0.3-0.9-0.4l-0.1-0.4    c-0.1-0.5-0.1-1.1-0.4-1.6c0.8-1.1,1.2-2.4,1.5-3.7C157.1,30.7,157.2,32.2,157.2,33.7z M145.9,24.2c0,0,0-0.1,0-0.1    c0.1,0,0.2,0.1,0.3,0.1c0,0.1-0.1,0.2-0.1,0.3C146,24.3,145.9,24.3,145.9,24.2z M48.5,33.7c0-0.6-0.1-1.3-0.4-1.9    c0.4-0.5,0.8-1.1,1.1-1.7c0,0.8,0.1,1.6,0.2,2.5l0.2,1.6C49.2,33.9,48.8,33.7,48.5,33.7z M38,23.4c0-0.6,0.1-1.1,0.2-1.7    c0.2-0.2,0.4-0.6,0.6-0.8c0,0,0,0,0,0c0,0.1,0,0.2,0,0.2c-0.1,0.3-0.3,1.3-0.4,1.6c-0.1,0.2-0.2,0.4-0.2,0.4L38,23.4z M63,24.4    L63,24.4C63.1,24.4,63.1,24.4,63,24.4C63.1,24.4,63.1,24.4,63,24.4z M3.4,68.7c0-0.1,0.1-0.2,0.2-0.3C3.5,68.5,3.4,68.7,3.4,68.7z     M24.7,39.9c-0.1,0.2-0.1,0.4-0.2,0.6c0,0,0-0.1,0-0.1c-0.2-1-0.5-2-1-3.1l-0.2-0.4l-0.5-0.3c-0.8-0.5-1.6-0.2-2,0.3l-0.1,0.2    L20,39.3l0,0.1c-0.7,3.6-1.9,6.2-3.8,7.9l-0.3,0.2l0,0.1c-0.1-0.5-0.1-1-0.2-1.4c-0.3-3.9,0.4-7.7,0.5-11.5    c0.2-2.7-1.5-4.7-0.9-7.5c0.4-2,0.5-4.3,1.7-6c0.8,0.3,1.4,0,1.7-0.2c0,0.1,0.1,0.2,0.1,0.2l0.7,1.3l0.3,0c0.5,0.3,1,0.1,1.5-0.1    c0.2,0.5,0.4,1.4,0.4,1.4s0,0,0.1,0c0,0.1,0.1,0.1,0.1,0.1l1,2l1.2-0.7l0.5-0.2l0.2-0.5l0.1-0.3c0.1-0.3,0.2-0.5,0.3-0.8    c0.1,0.6,0.2,1.2,0.5,1.7c0.3,0.3,0.3,0.7,0.5,1.1c0,0.1,0.1,0,0.2,0c0.2-0.4,0.3-0.9,0.5-1.4c0,0.6-0.1,1.3-0.1,1.9    c0,0.1-0.1,2.3-0.1,2.3c-0.1,1.4-0.2,2.8-0.2,4.2c0,0.9,0,1.9,0.1,2.8c0.2,1.2,0.2,2.4,0.2,3.6c0,1.4-0.1,2.8-0.1,4.2l0,1.6h-0.2    c0.1-0.9,0.2-1.8-0.2-2.7c-0.2-1-0.5-1.9-0.9-2.8C25,39.9,24.9,39.7,24.7,39.9z M64.7,60L64.7,60l0.3,0.2L64.7,60z M65.6,44.4    l0.7,0.2C66.3,44.6,65.9,44.5,65.6,44.4C65.6,44.4,65.6,44.4,65.6,44.4z M170.3,43.8c0,0-0.1,0-0.1,0c0,0,0,0,0,0    c0.1,0,0.2-0.1,0.3-0.1L170.3,43.8z"/>
		<path fill="#050303" d="M40.7,56.3C40.7,56.3,40.7,56.3,40.7,56.3c0-0.1-0.1-0.1-0.1-0.2L40.7,56.3z"/>
	</g>
	<g>
		<linearGradient id="SVGID_1_" gradientUnits="userSpaceOnUse" x1="13.2964" y1="11.4027" x2="13.2964" y2="65.9234">
			<stop offset="0" style="stop-color:#FCEE21"/>
			<stop offset="1" style="stop-color:#3BB34A"/>
		</linearGradient>
		<path fill="url(#SVGID_1_)" d="M2.1,7.5c-0.1-2,0-4,0.2-5.9C4.6,0.8,7.4,0.8,10,0.9c1.5,0.2,3,0.6,4.5,0.4    c2.7-0.4,5.4-0.6,8.2-0.7c0.6,0.1,1.2,0.2,1.7,0.6c1.3,2.4,0,5.2-0.1,7.8c-0.2,2.2,0.7,3.9,0.5,6.1c-0.1,1.3-0.8,2.4-0.5,3.9    c0.3,1.6-0.3,3-0.8,4.4c-0.1,0-0.2,0.1-0.2,0c-0.3-0.3-0.3-0.8-0.5-1.1c-0.4-0.7-0.4-1.5-0.6-2.3l-0.5-0.9    c-0.3,0.5-1.1,0.2-1.1,1.5c-0.1,0.1-0.2,0.1-0.3,0c-0.4-0.5-0.5-1.3-0.9-1.7c-1.1-0.6-1.2,0.6-2,0.3c-0.6-0.7-0.8-1.4-1.2-2.2    c-0.6-0.4-1,0.4-1.5,0.7c-1.8,1.6-1.7,4.3-2.3,6.6c-0.6,2.8,1.1,4.7,0.9,7.5c-0.1,3.9-0.8,7.6-0.5,11.5c0.4,1.9,0.3,4.1,0.4,6.1    c0.1,1,0.7,1.8,1.4,2.3c0.2,0.1,0.4,0,0.6-0.1c1.1-1.1,1.3-2.7,1.8-4.1c2.4-2.2,3.6-5.3,4.2-8.6c0.2-0.6,0.4-1.3,0.7-1.9    c0.1-0.2,0.3,0,0.4,0c0.4,0.9,0.8,1.8,0.9,2.8c0.6,1.4-0.1,3.1,0.1,4.6c0,2.5,0.6,4.7,0.4,7.2c-0.2,2.1-0.1,4.3-0.7,6.2    c-0.4,1.2-0.7,2.5-0.9,3.8c-0.9,0.8-1.3,2.2-2,3.2c-0.9,1.9-1.7,4.2-3.5,5.4c-0.3,0.3-0.5,0.5-0.8,0.7L15,72.4l-0.1,0    c0-0.9,0.1-1.7-0.6-2.2c-0.4,0.7-0.8,1.5-0.9,2.4c-0.8,0.4-0.9,1-1.3,1.6c0,0-0.1,0-0.2,0c-0.1-0.6-0.4-1.1-0.5-1.6l-0.1-0.1    c-0.4,0.5-0.3,1.3-0.9,1.6c-0.4,0.3-0.7-0.1-1.2,1.1c0,0.1-0.1,0.1-0.2,0.1c-0.5-1.1-1.5-1.8-1.9-2.9c-0.9-1.5-0.8-3.5-1.7-5    c-0.3,0-0.4,0.5-0.5,0.7c-0.1,0.1,0,0.6-0.3,0.5c-0.6-1.6-0.5-3.5-1.1-5C3.2,62.3,3,61,3,59.6C2.4,55.9,1.9,52,1.9,48l0-0.1    c0-2.2,0.1-4.2,0.1-6.5c0.2-2.8,0.1-5.7,0.2-8.6c0.2-3.2,0.2-6.4,0.4-9.7c-0.1-1,0.1-2.3,0-3.3c-0.2,0.1-0.3,0.9-0.6,0.7    c-0.2-0.6-0.2-1.2-0.3-1.9C1.4,14.9,1.9,11.3,2.1,7.5z"/>
		<linearGradient id="SVGID_2_" gradientUnits="userSpaceOnUse" x1="37.6" y1="4.6883" x2="37.6" y2="59.2075">
			<stop offset="0" style="stop-color:#FCEE21"/>
			<stop offset="1" style="stop-color:#3BB34A"/>
		</linearGradient>
		<path fill="url(#SVGID_2_)" d="M27.7,4.1c1.3-0.5,2.6,0.3,3.9,0.1c1-0.3,2-0.4,3-0.5c1.4,0.2,2.8-0.1,4.2,0c2,0,3.9-0.3,5.8,0.1    c0.6,0.9,1.3,1.9,1.4,3.1c0.1,0.1,0,0.6,0.1,0.7c0.3,0,0.4-1,0.8-0.8c0.4,1.1,0.6,2.4,0.6,3.7l0.5,2.4c-0.1,2-0.3,4-0.3,6.1    c0,2.3-0.4,4.4-0.5,6.6c-0.5,2.3-2.1,3.9-3.5,5.6v0.1c1,0,2.5-0.9,3.4,0.2c0.6,1,0.3,2.5,0.3,3.7c-0.1,2-0.5,4.3,0,6.2    c0.5,1.2,0.3,2.7,0.4,4l-0.6,5c0.2,1.3,0.6,2.6,0.8,3.9c-0.1,1.8-0.1,4.2,0,6c-0.1,0.1-0.4-0.4-0.4-0.5c-0.8-0.8-2.2-0.4-2.9-1.4    C44.4,57,43.5,57,43.5,56c-0.1-0.2-0.1-0.6-0.5-0.5c-0.3,0-0.7,0.1-0.9-0.3c-0.4-0.9-0.6-1.9-0.9-2.9c0.1-0.8-0.2-1.3-0.3-2    c-0.4,0-0.5,0.1-0.8,0.7c-0.5-1.4-1.2-2.7-1.3-4.3l-0.1-1.5c-0.1-0.2-0.3,0-0.5-0.1c-0.7-1.9-0.1-4.2-0.3-6.3    c-0.1-1-0.1-1.8,0-2.8c-0.2-0.2-0.6-0.2-0.8,0l-0.1,0.2c-0.2,1.4,0,2.8-0.1,4.3c-0.4,2.6-1.5,5.2-0.7,8c-0.2,1.8-0.1,3.8-0.7,5.4    c-0.3,0.6-0.7,1.2-0.9,1.8c-0.3,0-0.6-0.8-0.8-1l0.1,0.7c-0.3,1.7,0.1,3.6-0.6,5.2c-0.4,0.7-0.7,0.5-1.1,2.1    c0,0.1-0.1,0.1-0.2,0.1c-0.2-0.3-0.1-0.7-0.2-1l-0.7,1.3c0,0.8-0.4,1.4-0.6,2.1c-0.2,0.2-0.1,0.7-0.4,0.6    c-0.5-2.2-1.4-4.3-1.3-6.7c-0.1-1.3,0-2.7-0.6-3.8c-0.4-2.3-0.4-4.9-0.6-7.3c0-4.3,0.6-8.5,0.1-12.7c-0.3-3.1,0-6.1,0.2-9.1    c0.3-4.2,0.5-8.9-0.9-12.8C27.1,10.2,27.2,7.1,27.7,4.1z M35.8,17.9c-0.3,1.4-0.5,2.9-0.4,4.3c0.4,1,0.5,2.1,0.7,3.2    c0,1.3-0.1,2.6,0,3.9c1.1-0.7,1.4-2.3,1.8-3.5c0.2-0.5,0.6-1,0.8-1.6c0.4-0.4,0.7-1,1-1.6l0.5-2c0-0.8-0.3-1.5-0.4-2.2    c-0.3,0.1-0.4,0.6-0.7,0.7c-0.2,0-0.4-0.2-0.5-0.3c-0.2,0.3-0.5,0.3-0.7,0.6c-0.1,0.1-0.2,0.8-0.4,0.7c-0.2-0.3-0.5-0.6-0.5-1    c-0.4-0.6-0.1-1.5-0.7-2c-0.1-0.1-0.2,0-0.3,0.1L35.8,17.9z"/>
		<linearGradient id="SVGID_3_" gradientUnits="userSpaceOnUse" x1="59.54" y1="-1.3196" x2="59.54" y2="53.1996">
			<stop offset="0" style="stop-color:#FCEE21"/>
			<stop offset="1" style="stop-color:#3BB34A"/>
		</linearGradient>
		<path fill="url(#SVGID_3_)" d="M51.1,20c0.4-2.4-0.2-4.7-0.2-7.1c-0.3-2.6-0.3-5.4,0-8.1c1.9-0.9,3.8,0.3,5.8-0.1    c2.2-0.3,4.4,0,6.5-0.6c1.4-0.3,3-0.2,4.4,0c1.2,0.2,0.7,1.8,0.8,2.7c-0.3,2-0.2,4,0,6.1c0.2,1.3-0.6,2.3-0.2,3.6    c0.9,2-0.3,3.8-0.3,5.8c0.2,0.8-0.1,1.5-0.2,2.2c0,0.2,0,0.9-0.2,1l-0.3-0.6c-0.8-0.5-1.9-1-2-2.1c-0.1-0.2-0.1-0.4-0.2-0.5    c-0.3,0.1-0.2,0.7-0.6,0.5c-0.3-1.7-1-2.2-1.3-3.3c-0.3-0.4-0.8-0.5-1.3-0.6c-0.5-0.2-1.1-0.9-1.5-0.3c-0.4,1.2-0.4,2.6-0.7,3.9    c0.1,0.7,0.5,1.3,0.7,2.1c0.1,0.9-0.1,1.2,0.3,2l0.2,0.6c0.4-0.7,0.3-1.7,1-2.1c0.5,0,1.1-0.3,1.5,0c0.3,0,0.7-0.3,1,0    c0.4,0.4,0.8,0.8,0.9,1.4c-0.1,2.2,0.1,4.4,0.6,6.4c0.1,1.3-0.4,2.3-0.5,3.5c0,1-0.1,2.1-0.7,2.9c-0.3,0.1-0.4-0.3-0.4-0.6    c0-0.9-0.8-0.9-1.2-1.4c-0.3,0.3-0.6,0.2-0.8,1c-0.2-1-0.4-0.9-0.6-1.4l-1.3-1.5c-0.1-0.8,0.2-1.8-0.5-2.1c-0.1,0-0.3-0.1-0.4,0    c-0.3,1-0.2,2.1-0.3,3.1c-0.3,1-0.3,2.2,0.1,3.2l0.1,0.8c0.1,2-0.2,4,0.2,5.8c0.3,0.4,0.8,0.5,1.3,0.3l0.2-0.1l1.6-1.6    c0.5,0.3,0.4,1.1,1.4,0.9c0.6-0.2,1.1-0.6,1.6-0.9c0.2,0,0.3,0.1,0.4,0.2c0.2,0,0.4-0.2,0.6-0.1c0.6,1,0.4,2.2,0.4,3.4    c0.3,1.8,0.2,3.9-0.2,5.6c0,0.8,0.3,1.5,0.3,2.4c-0.2,0.9-0.2,1.9-0.4,2.8l-0.1,0.1c-0.3-0.2-0.3-0.6-0.5-0.9    c-0.8-0.3-1.3-1.8-2.4-1.4l-2.1,0.4c-0.9-0.2-1.9,0-2.7-0.6c-0.9-0.4-1.8,0.1-2.7,0.2c-1.1,0.2-2.2,0.8-3.3,0.9    C52,57.8,52,57,51.9,56.5c-0.1-1.7,0.1-3.3-0.4-4.8c-0.6-3.4-0.2-7.1,0-10.7c0.3-3.2-0.4-6.2-0.7-9.2c-0.2-2.3-0.3-4.6-0.2-6.9    L51.1,20z"/>
		<linearGradient id="SVGID_4_" gradientUnits="userSpaceOnUse" x1="80.9856" y1="-3.6519" x2="80.9856" y2="50.8696">
			<stop offset="0" style="stop-color:#FCEE21"/>
			<stop offset="1" style="stop-color:#3BB34A"/>
		</linearGradient>
		<path fill="url(#SVGID_4_)" d="M71.7,32.7c0-1.6-0.2-3.2-0.3-4.8c0.2-3.6,0.7-7.1,0.9-10.7c0.1-1.8,0.1-4.3,0.2-6.1    c-0.3,0-0.2-0.4-1.1,0.7c-0.6-0.4-0.3-1.3-0.5-2c-0.1-1.5,0-3,0.2-4.4l0-1.2c1.3-0.7,3.1-0.4,4.6-0.3c2.2-0.3,4.4,0.3,6.6-0.3    c2.2-0.4,4.4-0.9,6.6-0.4c0.4,0.1,0.4,0.5,0.5,0.8c0.2,2.2-0.2,4.4-0.2,6.6c-0.3,3.8-0.7,7.7-0.2,11.6c0.3,1.4,1,2.6,0.7,4.2    c0,2.7,0.1,5.4,0.7,7.8c0.3,2.3,0.8,4.6,0.7,7c-0.7,2.1-0.7,4.5-1.1,6.7c-0.1,0.5-0.7,0.6-0.9,1.1c-0.1,1.2-0.8,1.4-1,3.3    c-0.4,0-0.3-0.5-0.5-0.6c-0.6,0.7-0.4,1.8-1.1,2.4c-0.5,0.5-1,0.5-1.1,1.8c-0.1,0.1-0.2,0.1-0.2,0l-0.1-0.5    c0.2-1.8-0.8-2.4-0.7-3.8c0.1-0.5,0-1.1,0-1.6c-0.6-1-1.3-1.9-1.6-3c-0.4-0.3-0.4-0.8-0.4-1.2l0.1-3.1c0.2-1.8,0.9-3.5,0.4-5.3    c-0.2-0.5-0.8-0.6-1-1.1c-0.4-0.2-0.8,1.5-1,0.3c-0.1-0.9-0.2-1.8-0.6-2.6c-0.2,0.8-0.4,1.3-0.5,2.1c0.1,1.3,0.7,2.6,0.2,3.9    c-0.4,1.2-0.8,2.4-0.8,3.7c0.3,1.5-0.3,2.7-0.3,4.1c0.1,0.9-0.7,1.2-1.2,1.7c-0.2,1.2-0.2,2.4-0.8,3.4c-0.5,0.5-0.6,1.2-1.2,1.5    c-0.2,0-0.1-1.2-0.3-1.3c-0.2,0.2-0.2,1.4-0.4,1.6c-0.3,0.3-0.3,0.7-0.6,0.9c-0.3,0-0.1-0.4-0.3-0.5c-0.2,0.3-0.2,0.9-0.3,1.3    C73.1,57,73,56.5,72.1,58c-0.1,0-0.2-0.1-0.2-0.3c-0.3-1.1-0.1-2.4-0.3-3.6c-0.8-3,0-6.1-0.2-9.3c-0.3-1.1-0.5-2.1-0.5-3.3    c0.1-1.4-0.2-2.7,0-4L71.7,32.7z M78.7,23.8c0.2,1.7,0.7,3.2,0.7,4.9l0.1,0.2c1.2-0.2,2,0.5,3.2,0.5c0-1.3,0-2.5,0.4-3.6    c-0.1-0.9,0-1.9,0.1-2.7c-0.2-1.4-0.6-2.7-0.6-4.2c-0.2,0-0.3,0.2-0.3,0.4c-0.1,0.6-0.7,0.1-0.9,0.6c-0.1,0.8-0.8,1.4-0.6,2.3    c-0.7,1.6-0.2,0.8-0.5,0.9c-0.6-0.6-0.4-1.8-0.5-2.7c-0.1-0.4,0-0.9-0.2-1.2c-0.1,0-0.2,0.1-0.3,0.2    C78.9,20.7,78.9,22.3,78.7,23.8z"/>
		<linearGradient id="SVGID_5_" gradientUnits="userSpaceOnUse" x1="101.3185" y1="-3.2211" x2="101.3185" y2="51.2977">
			<stop offset="0" style="stop-color:#FCEE21"/>
			<stop offset="1" style="stop-color:#3BB34A"/>
		</linearGradient>
		<path fill="url(#SVGID_5_)" d="M92.4,13.3c-0.1-1.5-0.2-3-0.4-4.4c-0.1-1.4-0.1-2.8,0.1-4.1C94,3.9,96.3,4.3,98.5,4    c1.2-0.1,2.4,0,3.5,0.3l3.4-0.4c1.7,0.1,3.3,0.1,5,0.1c0.1,0.1,0.3,0,0.3,0.2c0.1,2.2,0.1,4.4-0.1,6.6c-0.5,3.2-0.2,6.7,0.2,9.9    c0.1,2-1,3.7-1,5.7c-0.1,0.1-0.2,0.1-0.2,0.1c-0.5-0.7-0.5-1.7-0.6-2.5c-0.5-0.6-1.3-0.7-1.6-1.5c-0.3-1.4,0.2-3.2-0.9-4.2    c-0.3-0.4-0.5-1-0.9-1.2c-0.4,0.5,0,1.3-0.1,1.9c0.1,2.1,0.6,4.2,0,6.2c-0.2,0.9-0.4,1.8-0.6,2.7c0.2,2.9-0.4,5.6,0,8.5    c-0.1,1.3,0.3,2.6,0.2,3.9c-0.3,1.1-0.8,2.1-1.3,3.2c-0.2,0.8,0,1.7-0.1,2.5c-0.4,1.7-0.3,3.3-1.1,5l-0.7,1.1    c-0.2,0.1-0.2-0.1-0.3-0.2c-0.1-0.4,0-0.9-0.2-1.2l-0.1,0.2c-0.2,1.1-0.3,2.2-0.7,3.2c-0.4-0.1,0-0.8-0.4-0.9    c-0.3,0.9-0.6,1.8-0.8,2.9c-0.3,0.4-0.9,0.4-0.8,1.5c0,0.1-0.1,0-0.2,0l-0.2-0.3c-0.2-2.7-1.2-5-1.2-7.8c-0.1-1.7,0.3-3.4,0-5.1    c-0.7-2.7-0.5-5.9-0.5-8.9l-0.4-2.1c0-3-0.1-6,0-9c0.2-2,0.4-4.1,0.2-6.2l-0.1,0c-1.7,2.5-2.7,5.4-3.3,8.4c-0.1,0.1,0,0.2-0.1,0.3    c-0.4,0-0.3-0.6-0.5-0.9c-0.9-3.4-0.8-7.5-0.2-11L92.4,13.3z"/>
		<linearGradient id="SVGID_6_" gradientUnits="userSpaceOnUse" x1="123.2771" y1="-2.9225" x2="123.2771" y2="51.5975">
			<stop offset="0" style="stop-color:#FCEE21"/>
			<stop offset="1" style="stop-color:#3BB34A"/>
		</linearGradient>
		<path fill="url(#SVGID_6_)" d="M113.4,4.8c0-0.2,0-0.5,0.2-0.5c1.3,0,2.8,0.2,4-0.2c1.3-0.1,2.7-0.1,3.8,0c0.2,1,0,2.1,0.1,3.1    c0.3,2.2,0.3,4.5,0.3,6.8l-0.2,0.3c-0.1,2.8-1.2,5.2-0.9,8.2c0.1,2.1,0.2,4.2,0.6,6.1c0.4,2.3,1.1,4.4,1.3,6.8l0,0.1l0.1-0.1    c0.1-2.5,0.3-5.1,0.5-7.5c0-2.1-0.5-4-0.6-6.1c0.1-2,1.2-3.5,1.3-5.5c0-4.1-0.8-8-0.7-12.2l0.2-0.2c1,0,1.9-0.3,2.8-0.2    c0.6,0.3,1.3,0.5,2.1,0.5c1.6,0.1,3.1-0.1,4.7-0.2c0.2,0,0.5,0,0.6,0.3c-0.1,4.4-0.2,8.8-0.8,13.1c0,0.8-0.1,1.5,0,2.3    c0.1,0.9,0,1.8,0.1,2.7c0,0.3-0.5-0.2-0.7-0.1c-0.6,2.4-0.4,5.6-0.5,8.3c0.1,2.8-0.4,5.4-0.6,8.2c-0.3,2.2-1.1,4.3-1.6,6.4    c-0.5,1-0.9,2-1.7,2.8c-0.6,0.6-0.7,1.4-1.3,1.8c-0.3,0-0.2-0.4-0.3-0.6c-0.3,0.1-0.3,0.6-0.5,0.8c-0.5,1.3-0.8,2.7-1.1,4.2    c-0.6,1.4-2,1.9-2.4,3.6c-0.1,0.1-0.2,0.1-0.3,0.1l-0.1-0.1c-0.1-0.6,0-1.2-0.3-1.7h-0.1c-0.4,0.6-0.4,1.3-0.6,1.9    c-0.1,0.1-0.2,0.3-0.3,0.2c-0.7-0.9-0.8-1.9-1.2-2.9c-0.2-0.7-0.3-1.5-0.8-2c-0.7,0.2-1.1-0.6-1.5-1.1c-0.8-2-1.4-4.2-1.7-6.5    c0-2.5-0.2-4.9-0.6-7.2c-0.2-0.1-0.5,0-0.5-0.4c-0.5-1.6-0.5-3.5-0.7-5.3c-0.2-4.3-0.1-8.7,0.3-12.9l0-3.4    c-0.2-0.2-0.5,0.7-0.7,0.5c-0.1-1.7-0.3-3.5-0.2-5.3C113.1,9.3,113.4,7.1,113.4,4.8z"/>
		<linearGradient id="SVGID_7_" gradientUnits="userSpaceOnUse" x1="145.6096" y1="6.7483" x2="145.6096" y2="61.2685">
			<stop offset="0" style="stop-color:#FCEE21"/>
			<stop offset="1" style="stop-color:#3BB34A"/>
		</linearGradient>
		<path fill="url(#SVGID_7_)" d="M136.1,5c0-0.3,0.2-0.6,0.5-0.6c2.1-0.1,4.2-0.7,6.3-0.4c2,0.3,3.9-0.3,5.9-0.4    c1.2-0.1,2.2,0.5,3.3,0.8c0.7,0.7,1.3,1.7,1.6,2.7c0.1,0.3,0.1,0.6,0.3,0.8c0.2,0,0.4-0.9,0.5-0.5c-0.2,0.9,0.2,2.2,0.4,3.1    c0.2,0.8,0.2,1.7,0.2,2.6c0.6,2.9,0.3,6.2-0.1,9.1c-0.4,3-0.6,6.2-2.4,8.4l-1.7,1.9l0.1,0.1c1-0.3,2.4-0.7,3.4,0.1    c0.5,0.5,0.5,1.3,0.6,2c0.3,3.9-0.6,7.7-0.2,11.6c-0.6,1.5-0.9,3.2-1.2,4.9c0.2,2.5,1,4.9,0.8,7.5c-0.3,1.6-0.2,3.5-0.3,5.2    c0.1,1.1,0.2,2.4,0.1,3.6c0,0.2-0.2,0.2-0.3,0.1c-0.3-1.1-1.2-1.1-1.7-1.8c-0.4-1.2-0.7-2.4-0.8-3.7c-0.2-0.3-0.3,0.3-0.5,0.1    c-0.4-0.8-0.9-1.6-0.9-2.6c-0.2-0.8-0.2-1.7-0.5-2.5c-0.2,0.1-0.7,0.7-0.8,0.1c-0.5-1.5-0.9-3-1.7-4.4c-0.9-2-0.9-4.4-0.8-6.7    l-0.2-0.8c-0.4-0.4-0.9-0.9-1-1.5c-0.1-2,0.2-3.6,0.1-5.5c-0.3-0.2-0.6-0.3-0.8-0.1c-0.5,0.3-0.3,0.9-0.4,1.4    c0,1.3,0.1,2.6-0.1,3.9c0.4,1.3-0.2,2.6-0.3,3.9c-0.1,1.8,0.3,3.6-0.1,5.2c-0.6,0.9-1,1.8-1.6,2.7c-0.7,1.1-0.3,2.4-0.6,3.6    c-0.6,1-1,0.2-2.2,2.6c-0.3-0.1,0-0.6-0.2-0.8c-0.1-0.4-0.1-0.8-0.2-1.2c-0.4,0.3-0.2,1-0.4,1.5c-0.3,0.7-0.6,1.5-1,2.2l-0.1,0    c-0.5-1.7-0.4-3.7-0.7-5.5c-0.3-2.3-0.5-4.8-0.1-7.2c-0.1-3.1-0.7-6.2-0.4-9.5c0.1-2.2,0.4-4.3,0.6-6.4c0-0.8-0.3-1.4-0.4-2.2    c0.4-5.4,1-10.7,0.9-16.2c-0.1-0.3,0-0.8-0.2-1.1c-0.5-0.4-0.9-0.9-1.1-1.4C135.9,10.9,136.1,7.9,136.1,5z M143.3,21.5    c0.8,0.9,0.6,2.4,0.7,3.7c0,1.4,0.4,2.6,0.4,3.9l1.6-1.8c1-1.1,1.5-2.5,1.9-4c0.2-1.1,0.2-2.6-0.1-3.6c-0.5,0.8-0.3,2-1.1,2.5    c-0.1,0-0.2,0.1-0.3,0c0.2-1-0.3-1.4-0.7-2c-0.2,0.1-0.4,0.5-0.7,0.3c-0.5-0.7-0.4-1.6-0.7-2.3c-0.1-0.3-0.2-0.6-0.4-0.7    C143.4,18.7,143.2,20.1,143.3,21.5z"/>
		<linearGradient id="SVGID_8_" gradientUnits="userSpaceOnUse" x1="167.9012" y1="13.7956" x2="167.9012" y2="68.3153">
			<stop offset="0" style="stop-color:#FCEE21"/>
			<stop offset="1" style="stop-color:#3BB34A"/>
		</linearGradient>
		<path fill="url(#SVGID_8_)" d="M157.9,46.9c0.4-2.6,0.8-5.1,0.8-7.9c0-4.1,0.2-8.4-0.2-12.5c-0.3-3.3,0.7-6.2,0.2-9.4    c-0.3-0.9-1.1-1.4-1.1-2.5c-0.2-1.7-0.4-3.6-0.2-5.4c0.3-1.8-0.1-3.7,0.4-5.4l0.1-0.1l4.3,0c1.5,0.3,3,0.3,4.5,0.5    c1.3-0.1,2.6-0.5,3.9-0.5c2.4,0.1,4.8-0.3,7.1-0.2c0.3,0.1,0.7,0.1,0.8,0.5c-0.2,1-0.1,2-0.2,3.1c0.3,0.9,0.1,2,0.1,2.9    c-0.1,0.1-0.4,0.1-0.4,0.4c-0.1,1.9-0.1,3.7-0.2,5.6c0.5,1.6-0.2,3.1-0.2,4.7c-0.1,1.6,0.1,3.3-0.5,4.7c-0.1,0.2-0.3,0.2-0.4,0.1    c-0.7-1.3-2.1-1.7-2.7-2.9c-0.2,0.1-0.2,0.8-0.5,0.4c-0.8-1.5-1.5-2.4-2.3-3.5c-0.7-0.3-1.5-0.6-2.3-0.5c-0.1,0-0.3-0.1-0.4,0    c-0.5,1.1-0.5,2.4-0.6,3.6c-0.3,1.3-0.3,2.8,0.1,4.2c-0.1,1-0.6,2-0.3,3.1c0,0.1,0,0.2,0.1,0.3c0.3-0.2,0.3-0.8,0.7-0.6    c0.5-0.8,0.9-2.1,1.9-2.2c0.9-0.1,1.8,0.1,2.7,0.1c0.7-0.1,1.5-0.5,2.1,0.1l0.2,0.3c-0.1,1.5,0.6,2.6,0.4,4.1l-0.5,2.3    c-0.1,2.8-0.4,5.8-0.2,8.5c0,0.7-0.5,1.1-0.5,1.8c-0.2-0.1-0.3-0.5-0.5-0.7c-0.4-1.2-1.2-1.1-1.5-1.9c-0.4,0.3-0.6,0.8-0.8,1.1    c-0.5-0.1-0.8-0.7-1.3-1.1c-0.1-0.1-0.2-0.3-0.4-0.2c-0.4,0.4-0.8-0.1-1.2-0.3c-0.3-0.3-0.6-0.7-0.8-1c-0.2,0.2-0.2,0.6-0.4,0.9    c-0.2,0.5-0.7,1.1-0.4,1.8c0.1,1.4,0.9,2.6,0.6,4.1c-0.4,2.1-1.1,4.3-0.6,6.5c0.2,0.7,0.1,1.5,0.3,2.2c0.2,0,0.4-0.2,0.6-0.2    c0.6-0.2,1.4,0.1,2-0.2c0.7,0.2,1.2-0.4,1.9-0.2l1.2,0.4c0.4-0.3,1.2-0.1,1.3-0.8c0.4-1.3,1.7-1.8,2.5-2.6    c0.5,0.3,0.4,1.1,0.5,1.8c0,2.4,0.4,4.7,0.1,7c-0.2,2.3-0.1,4.7-0.6,6.8c-0.3,1.1-0.3,2.3-0.4,3.5c0.1,1,0.2,2.1-0.1,3    c0,0.2-0.3,0.1-0.3,0c-0.6-1.1-1-1.5-1.9-1.6c-0.6-0.2-1.4-0.1-1.8-0.8c-0.2,0.2-0.6,0.2-0.8,0.1l-0.7-0.6c-0.6,0-0.6,0.5-1,0.2    c-0.4-0.8-1.1-1-1.6-1.4c-0.3,1-1.5,0.5-2.2,0.6c-0.9,0-2.1,0-3,0.1c-1.4-0.6-2.8-1.1-4.2-1.5c-0.3-0.3-0.2-0.8-0.4-1.1    c-1-2.7-0.9-5.9-1.1-8.9C157.2,55.5,157.5,51.1,157.9,46.9z"/>
	</g>
</g>
</svg>