<svg width="75px" height="252px" viewBox="0 0 75 252" version="1.1" xmlns="http://www.w3.org/2000/svg" xmlns:xlink="http://www.w3.org/1999/xlink">
    <!-- Generator: Sketch 40 (33762) - http://www.bohemiancoding.com/sketch -->
    <title>Build Complete Copy 18</title>
    <desc>Created with Sketch.</desc>
    <defs>
        <rect id="path-1" x="0" y="0" width="71" height="248" rx="35.5"></rect>
        <mask id="mask-2" maskContentUnits="userSpaceOnUse" maskUnits="objectBoundingBox" x="-2" y="-2" width="75" height="252">
            <rect x="-2" y="-2" width="75" height="252" fill="white"></rect>
            <use xlink:href="#path-1" fill="black"></use>
        </mask>
    </defs>
    <g id="Longboards" stroke="none" stroke-width="1" fill="none" fill-rule="evenodd">
        <g id="Build-Complete-Copy-18" transform="translate(-294.000000, -360.000000)">
            <g id="Group-8" transform="translate(294.000000, 360.000000)">
                <g id="Parts/Deck" transform="translate(2.000000, 2.000000)">
                    <g>
                        <use id="Rectangle-21" stroke="#000000" mask="url(#mask-2)" stroke-width="4" xlink:href="#path-1"></use>
                        <path d="M27.8571429,56.7142857 C29.4350993,56.7142857 30.7142857,55.4350993 30.7142857,53.8571429 C30.7142857,52.2791864 29.4350993,51 27.8571429,51 C26.2791864,51 25,52.2791864 25,53.8571429 C25,55.4350993 26.2791864,56.7142857 27.8571429,56.7142857 Z M27.8571429,71 C29.4350993,71 30.7142857,69.7208136 30.7142857,68.1428571 C30.7142857,66.5649007 29.4350993,65.2857143 27.8571429,65.2857143 C26.2791864,65.2857143 25,66.5649007 25,68.1428571 C25,69.7208136 26.2791864,71 27.8571429,71 Z M42.1428571,56.7142857 C43.7208136,56.7142857 45,55.4350993 45,53.8571429 C45,52.2791864 43.7208136,51 42.1428571,51 C40.5649007,51 39.2857143,52.2791864 39.2857143,53.8571429 C39.2857143,55.4350993 40.5649007,56.7142857 42.1428571,56.7142857 Z M42.1428571,71 C43.7208136,71 45,69.7208136 45,68.1428571 C45,66.5649007 43.7208136,65.2857143 42.1428571,65.2857143 C40.5649007,65.2857143 39.2857143,66.5649007 39.2857143,68.1428571 C39.2857143,69.7208136 40.5649007,71 42.1428571,71 Z" id="Oval-6" fill="#000000"></path>
                        <path d="M27.8571429,182.714286 C29.4350993,182.714286 30.7142857,181.435099 30.7142857,179.857143 C30.7142857,178.279186 29.4350993,177 27.8571429,177 C26.2791864,177 25,178.279186 25,179.857143 C25,181.435099 26.2791864,182.714286 27.8571429,182.714286 Z M27.8571429,197 C29.4350993,197 30.7142857,195.720814 30.7142857,194.142857 C30.7142857,192.564901 29.4350993,191.285714 27.8571429,191.285714 C26.2791864,191.285714 25,192.564901 25,194.142857 C25,195.720814 26.2791864,197 27.8571429,197 Z M42.1428571,182.714286 C43.7208136,182.714286 45,181.435099 45,179.857143 C45,178.279186 43.7208136,177 42.1428571,177 C40.5649007,177 39.2857143,178.279186 39.2857143,179.857143 C39.2857143,181.435099 40.5649007,182.714286 42.1428571,182.714286 Z M42.1428571,197 C43.7208136,197 45,195.720814 45,194.142857 C45,192.564901 43.7208136,191.285714 42.1428571,191.285714 C40.5649007,191.285714 39.2857143,192.564901 39.2857143,194.142857 C39.2857143,195.720814 40.5649007,197 42.1428571,197 Z" id="Oval-6" fill="#000000"></path>
                    </g>
                </g>
            </g>
        </g>
    </g>
</svg>