<?xml version="1.0" encoding="UTF-8" standalone="no"?>
<svg width="58px" height="188px" viewBox="0 0 58 188" version="1.1" xmlns="http://www.w3.org/2000/svg" xmlns:xlink="http://www.w3.org/1999/xlink">
    <!-- Generator: Sketch 40 (33762) - http://www.bohemiancoding.com/sketch -->
    <title>Risers</title>
    <desc>Created with Sketch.</desc>
    <defs></defs>
    <g id="Longboards" stroke="none" stroke-width="1" fill="none" fill-rule="evenodd">
        <g id="Build-Complete-Copy-18" transform="translate(-639.000000, -842.000000)" fill="#000000">
            <g id="Components" transform="translate(115.000000, 301.000000)">
                <g id="Risers" transform="translate(450.000000, 440.000000)">
                    <g id="risers" transform="translate(74.000000, 101.000000)">
                        <g id="Parts/Risers" transform="translate(0.000000, 104.000000)">
                            <g>
                                <path d="M2,7.99663433 L2,7.99663433 L2,76.0033657 C2,79.3153812 4.68551229,82 7.99825958,82 L50.0017404,82 C53.3221316,82 56,79.3152154 56,76.0033657 L56,7.99663433 C56,4.68461881 53.3144877,2 50.0017404,2 L7.99825958,2 C4.6778684,2 2,4.68478464 2,7.99663433 L2,7.99663433 Z M0,7.99663433 L0,7.99663433 C0,3.5778464 3.57566584,0 7.99825958,0 L50.0017404,0 C54.4189846,0 58,3.57997668 58,7.99663433 L58,76.0033657 C58,80.4221536 54.4243342,84 50.0017404,84 L7.99825958,84 C3.58101536,84 0,80.4200233 0,76.0033657 L0,7.99663433 Z" id="Rectangle-52"></path>
                                <path d="M29,41 C38.3888407,41 46,33.3888407 46,24 C46,14.6111593 38.3888407,7 29,7 C19.6111593,7 12,14.6111593 12,24 C12,33.3888407 19.6111593,41 29,41 L29,41 Z M29,43 L29,43 C18.5065898,43 10,34.4934102 10,24 C10,13.5065898 18.5065898,5 29,5 C39.4934102,5 48,13.5065898 48,24 C48,34.4934102 39.4934102,43 29,43 L29,43 Z" id="Oval-16"></path>
                                <path d="M8,10 C9.1045695,10 10,9.1045695 10,8 C10,6.8954305 9.1045695,6 8,6 C6.8954305,6 6,6.8954305 6,8 C6,9.1045695 6.8954305,10 8,10 L8,10 Z M8,11 L8,11 C6.34314575,11 5,9.65685425 5,8 C5,6.34314575 6.34314575,5 8,5 C9.65685425,5 11,6.34314575 11,8 C11,9.65685425 9.65685425,11 8,11 L8,11 Z" id="Oval-17"></path>
                                <path d="M49,10 C50.1045695,10 51,9.1045695 51,8 C51,6.8954305 50.1045695,6 49,6 C47.8954305,6 47,6.8954305 47,8 C47,9.1045695 47.8954305,10 49,10 L49,10 Z M49,11 L49,11 C47.3431458,11 46,9.65685425 46,8 C46,6.34314575 47.3431458,5 49,5 C50.6568542,5 52,6.34314575 52,8 C52,9.65685425 50.6568542,11 49,11 L49,11 Z" id="Oval-17"></path>
                                <path d="M9,77 C10.1045695,77 11,76.1045695 11,75 C11,73.8954305 10.1045695,73 9,73 C7.8954305,73 7,73.8954305 7,75 C7,76.1045695 7.8954305,77 9,77 L9,77 Z M9,78 L9,78 C7.34314575,78 6,76.6568542 6,75 C6,73.3431458 7.34314575,72 9,72 C10.6568542,72 12,73.3431458 12,75 C12,76.6568542 10.6568542,78 9,78 L9,78 Z" id="Oval-17"></path>
                                <path d="M50,77 C51.1045695,77 52,76.1045695 52,75 C52,73.8954305 51.1045695,73 50,73 C48.8954305,73 48,73.8954305 48,75 C48,76.1045695 48.8954305,77 50,77 L50,77 Z M50,78 L50,78 C48.3431458,78 47,76.6568542 47,75 C47,73.3431458 48.3431458,72 50,72 C51.6568542,72 53,73.3431458 53,75 C53,76.6568542 51.6568542,78 50,78 L50,78 Z" id="Oval-17"></path>
                                <path d="M9,67 C10.1045695,67 11,66.1045695 11,65 C11,63.8954305 10.1045695,63 9,63 C7.8954305,63 7,63.8954305 7,65 C7,66.1045695 7.8954305,67 9,67 L9,67 Z M9,68 L9,68 C7.34314575,68 6,66.6568542 6,65 C6,63.3431458 7.34314575,62 9,62 C10.6568542,62 12,63.3431458 12,65 C12,66.6568542 10.6568542,68 9,68 L9,68 Z" id="Oval-17"></path>
                                <path d="M50,67 C51.1045695,67 52,66.1045695 52,65 C52,63.8954305 51.1045695,63 50,63 C48.8954305,63 48,63.8954305 48,65 C48,66.1045695 48.8954305,67 50,67 L50,67 Z M50,68 L50,68 C48.3431458,68 47,66.6568542 47,65 C47,63.3431458 48.3431458,62 50,62 C51.6568542,62 53,63.3431458 53,65 C53,66.6568542 51.6568542,68 50,68 L50,68 Z" id="Oval-17"></path>
                            </g>
                        </g>
                        <g id="Parts/Risers">
                            <g>
                                <path d="M2,7.99663433 L2,7.99663433 L2,76.0033657 C2,79.3153812 4.68551229,82 7.99825958,82 L50.0017404,82 C53.3221316,82 56,79.3152154 56,76.0033657 L56,7.99663433 C56,4.68461881 53.3144877,2 50.0017404,2 L7.99825958,2 C4.6778684,2 2,4.68478464 2,7.99663433 L2,7.99663433 Z M0,7.99663433 L0,7.99663433 C0,3.5778464 3.57566584,0 7.99825958,0 L50.0017404,0 C54.4189846,0 58,3.57997668 58,7.99663433 L58,76.0033657 C58,80.4221536 54.4243342,84 50.0017404,84 L7.99825958,84 C3.58101536,84 0,80.4200233 0,76.0033657 L0,7.99663433 Z" id="Rectangle-52"></path>
                                <path d="M29,41 C38.3888407,41 46,33.3888407 46,24 C46,14.6111593 38.3888407,7 29,7 C19.6111593,7 12,14.6111593 12,24 C12,33.3888407 19.6111593,41 29,41 L29,41 Z M29,43 L29,43 C18.5065898,43 10,34.4934102 10,24 C10,13.5065898 18.5065898,5 29,5 C39.4934102,5 48,13.5065898 48,24 C48,34.4934102 39.4934102,43 29,43 L29,43 Z" id="Oval-16"></path>
                                <path d="M8,10 C9.1045695,10 10,9.1045695 10,8 C10,6.8954305 9.1045695,6 8,6 C6.8954305,6 6,6.8954305 6,8 C6,9.1045695 6.8954305,10 8,10 L8,10 Z M8,11 L8,11 C6.34314575,11 5,9.65685425 5,8 C5,6.34314575 6.34314575,5 8,5 C9.65685425,5 11,6.34314575 11,8 C11,9.65685425 9.65685425,11 8,11 L8,11 Z" id="Oval-17"></path>
                                <path d="M49,10 C50.1045695,10 51,9.1045695 51,8 C51,6.8954305 50.1045695,6 49,6 C47.8954305,6 47,6.8954305 47,8 C47,9.1045695 47.8954305,10 49,10 L49,10 Z M49,11 L49,11 C47.3431458,11 46,9.65685425 46,8 C46,6.34314575 47.3431458,5 49,5 C50.6568542,5 52,6.34314575 52,8 C52,9.65685425 50.6568542,11 49,11 L49,11 Z" id="Oval-17"></path>
                                <path d="M9,77 C10.1045695,77 11,76.1045695 11,75 C11,73.8954305 10.1045695,73 9,73 C7.8954305,73 7,73.8954305 7,75 C7,76.1045695 7.8954305,77 9,77 L9,77 Z M9,78 L9,78 C7.34314575,78 6,76.6568542 6,75 C6,73.3431458 7.34314575,72 9,72 C10.6568542,72 12,73.3431458 12,75 C12,76.6568542 10.6568542,78 9,78 L9,78 Z" id="Oval-17"></path>
                                <path d="M50,77 C51.1045695,77 52,76.1045695 52,75 C52,73.8954305 51.1045695,73 50,73 C48.8954305,73 48,73.8954305 48,75 C48,76.1045695 48.8954305,77 50,77 L50,77 Z M50,78 L50,78 C48.3431458,78 47,76.6568542 47,75 C47,73.3431458 48.3431458,72 50,72 C51.6568542,72 53,73.3431458 53,75 C53,76.6568542 51.6568542,78 50,78 L50,78 Z" id="Oval-17"></path>
                                <path d="M9,67 C10.1045695,67 11,66.1045695 11,65 C11,63.8954305 10.1045695,63 9,63 C7.8954305,63 7,63.8954305 7,65 C7,66.1045695 7.8954305,67 9,67 L9,67 Z M9,68 L9,68 C7.34314575,68 6,66.6568542 6,65 C6,63.3431458 7.34314575,62 9,62 C10.6568542,62 12,63.3431458 12,65 C12,66.6568542 10.6568542,68 9,68 L9,68 Z" id="Oval-17"></path>
                                <path d="M50,67 C51.1045695,67 52,66.1045695 52,65 C52,63.8954305 51.1045695,63 50,63 C48.8954305,63 48,63.8954305 48,65 C48,66.1045695 48.8954305,67 50,67 L50,67 Z M50,68 L50,68 C48.3431458,68 47,66.6568542 47,65 C47,63.3431458 48.3431458,62 50,62 C51.6568542,62 53,63.3431458 53,65 C53,66.6568542 51.6568542,68 50,68 L50,68 Z" id="Oval-17"></path>
                            </g>
                        </g>
                    </g>
                </g>
            </g>
        </g>
    </g>
</svg>