<?xml version="1.0" encoding="UTF-8" standalone="no"?>
<svg width="172px" height="132px" viewBox="0 0 172 132" version="1.1" xmlns="http://www.w3.org/2000/svg" xmlns:xlink="http://www.w3.org/1999/xlink">
    <!-- Generator: Sketch 40 (33762) - http://www.bohemiancoding.com/sketch -->
    <title>Trucks</title>
    <desc>Created with Sketch.</desc>
    <defs>
        <path d="M76.88,45 L69.4989532,45 C68.1251345,45 67,46.1192881 67,47.5 L67,50 L106,50 L106,47.5 C106,46.1096621 104.881181,45 103.501047,45 L96.12,45 L93.7700486,35.9617255 C93.6310425,35.4270864 93.067932,35 92.5102778,35 L80.4897222,35 C79.9312343,35 79.3680494,35.4305792 79.2299514,35.9617255 L76.88,45 Z" id="path-1"></path>
        <mask id="mask-2" maskContentUnits="userSpaceOnUse" maskUnits="objectBoundingBox" x="-2" y="-2" width="43" height="19">
            <rect x="65" y="33" width="43" height="19" fill="white"></rect>
            <use xlink:href="#path-1" fill="black"></use>
        </mask>
        <rect id="path-3" x="4" y="1" width="6" height="13" rx="1"></rect>
        <mask id="mask-4" maskContentUnits="userSpaceOnUse" maskUnits="objectBoundingBox" x="0" y="0" width="6" height="13" fill="white">
            <use xlink:href="#path-3"></use>
        </mask>
        <rect id="path-5" x="162" y="1" width="6" height="13" rx="1"></rect>
        <mask id="mask-6" maskContentUnits="userSpaceOnUse" maskUnits="objectBoundingBox" x="0" y="0" width="6" height="13" fill="white">
            <use xlink:href="#path-5"></use>
        </mask>
        <path d="M76.88,45 L69.4989532,45 C68.1251345,45 67,46.1192881 67,47.5 L67,50 L106,50 L106,47.5 C106,46.1096621 104.881181,45 103.501047,45 L96.12,45 L93.7700486,35.9617255 C93.6310425,35.4270864 93.067932,35 92.5102778,35 L80.4897222,35 C79.9312343,35 79.3680494,35.4305792 79.2299514,35.9617255 L76.88,45 Z" id="path-7"></path>
        <mask id="mask-8" maskContentUnits="userSpaceOnUse" maskUnits="objectBoundingBox" x="-2" y="-2" width="43" height="19">
            <rect x="65" y="33" width="43" height="19" fill="white"></rect>
            <use xlink:href="#path-7" fill="black"></use>
        </mask>
        <rect id="path-9" x="4" y="1" width="6" height="13" rx="1"></rect>
        <mask id="mask-10" maskContentUnits="userSpaceOnUse" maskUnits="objectBoundingBox" x="0" y="0" width="6" height="13" fill="white">
            <use xlink:href="#path-9"></use>
        </mask>
        <rect id="path-11" x="162" y="1" width="6" height="13" rx="1"></rect>
        <mask id="mask-12" maskContentUnits="userSpaceOnUse" maskUnits="objectBoundingBox" x="0" y="0" width="6" height="13" fill="white">
            <use xlink:href="#path-11"></use>
        </mask>
    </defs>
    <g id="Longboards" stroke="none" stroke-width="1" fill="none" fill-rule="evenodd">
        <g id="Build-Complete-Copy-18" transform="translate(-471.000000, -423.000000)">
            <g id="Components" transform="translate(115.000000, 301.000000)">
                <g id="Trucks" transform="translate(303.000000, 0.000000)">
                    <g transform="translate(53.000000, 122.000000)" id="Parts/Truck">
                        <g transform="translate(0.000000, 80.000000)">
                            <g>
                                <path d="M73.226865,38.8470511 L73.226865,38.8470511 L69.9121094,42.9904785 L103.101562,42.9904785 L99.8050239,38.8470511 C99.4660441,38.4209865 98.7397016,38.0668945 98.1912295,38.0668945 L74.8440895,38.0668945 C74.2907003,38.0668945 73.5715613,38.4161825 73.226865,38.8470511 L73.226865,38.8470511 Z M71.6651299,37.5976578 L71.6651299,37.5976578 C72.3894035,36.6923196 73.6831548,36.0668945 74.8440895,36.0668945 L98.1912295,36.0668945 C99.348496,36.0668945 100.651262,36.6983365 101.37011,37.6018581 L104.666649,41.7452856 L107.248546,44.9904785 L103.101562,44.9904785 L69.9121094,44.9904785 L65.7508489,44.9904785 L68.3503743,41.7410853 L71.6651299,37.5976578 Z" id="Rectangle-28" fill="#000000"></path>
                                <g id="Rectangle-22">
                                    <use fill="#FFFFFF" fill-rule="evenodd" xlink:href="#path-1"></use>
                                    <use stroke="#000000" mask="url(#mask-2)" stroke-width="4" xlink:href="#path-1"></use>
                                </g>
                                <path d="M30,4.33135049 L30,4.33135049 L30,11.0063207 C30,11.5585248 30.4500663,12 31.0052511,12 L44.2957746,12 C44.2957746,12 65.3861926,18.3697358 75.9314016,21.1296037 C79.4519203,22.0509858 82.056338,33 82.056338,33 L89.943662,33 C89.943662,33 91.7897671,22.874727 96.1549296,20.6 C105.816901,18.178125 127.901408,12 127.901408,12 L141.008614,12 C141.546883,12 142,11.5551146 142,11.0063207 L142,4.33135049 C142,3.7791464 141.559042,3.25565308 141.015093,3.15447855 L134.808219,2 L38,2 L30.980957,3.17364648 C30.4415101,3.26384682 30,3.78255659 30,4.33135049 L30,4.33135049 Z M28,4.33135049 L28,4.33135049 C28,2.80517912 29.1478662,1.45238951 30.6511184,1.20103236 L37.6701614,0.0273858796 L37.8339438,0 L38,0 L134.808219,0 L134.992638,0 L135.173947,0.0337234574 L141.380821,1.18820201 C142.869625,1.46511967 144,2.81310876 144,4.33135049 L144,11.0063207 C144,12.6583481 142.65281,14 141.008614,14 L127.901408,14 L128.44022,13.9260534 C128.373041,13.9448466 128.373041,13.9448466 128.05512,14.0336527 C127.61993,14.1551323 127.377136,14.2228556 126.96641,14.3372934 C125.793089,14.6642079 124.48251,15.0284633 123.067079,15.42073 C119.02281,16.5415415 114.948229,17.662377 111.102347,18.708659 C110.718282,18.813117 110.718282,18.813117 110.333998,18.9175199 C104.518447,20.4970493 99.8223465,21.7425969 96.6412068,22.5399831 L97.0791835,22.3736276 C95.9159697,22.9797892 94.7089998,24.7538132 93.6767102,27.3211268 C93.1478497,28.6364075 92.7002901,30.0609208 92.3357014,31.4874312 C92.2077993,31.9878683 92.0997198,32.4516472 92.011195,32.8658543 C91.9592253,33.1090204 91.9260243,33.2775727 91.9112255,33.3587389 L91.6119802,35 L89.943662,35 L82.056338,35 L80.476271,35 L80.1106259,33.4628222 C80.0916206,33.3829236 80.0515988,33.2217791 79.9915676,32.9912012 C79.8899109,32.6007409 79.770195,32.1641193 79.6334903,31.6932573 C79.2437289,30.350773 78.7981323,29.0098148 78.3077647,27.7691631 C77.2217583,25.0215189 76.0330413,23.2235664 75.4250215,23.0644369 C72.183374,22.2160403 67.7755463,20.9834794 62.4882705,19.4576449 C62.0926761,19.3434818 61.69302,19.2279227 61.2894822,19.1110244 C57.3650335,17.9741758 53.2299546,16.7564141 49.1407888,15.5386891 C47.7096664,15.1125109 46.3864431,14.7167598 45.2032296,14.3615662 C44.7890024,14.2372176 44.4218281,14.1268099 44.1057216,14.0316096 C43.7853765,13.9350753 43.7853765,13.9350753 43.7175311,13.9145846 L44.2957746,14 L31.0052511,14 C29.3505001,14 28,12.6682106 28,11.0063207 L28,4.33135049 Z" id="Rectangle-23" fill="#000000"></path>
                                <path d="M28,6 L3.00329963,6 C2.44919255,6 2,6.44266033 2,6.99895656 L2,8.00104344 C2,8.55275191 2.45127869,9 3.00329963,9 L28,9 L28,6 L28,6 Z M28,4 L30,4 L30,6 L30,9 L30,11 L28,11 L3.00329963,11 C1.34856525,11 0,9.65919813 0,8.00104344 L0,6.99895656 C0,5.33629659 1.34637737,4 3.00329963,4 L28,4 Z M11,6.3 L11,8.7 L11,9 L12,9 L12,8.7 L12,6.3 L12,6 L11,6 L11,6.3 Z M13,6.3 L13,8.7 L13,9 L14,9 L14,8.7 L14,6.3 L14,6 L13,6 L13,6.3 Z M15,6.3 L15,8.7 L15,9 L16,9 L16,8.7 L16,6.3 L16,6 L15,6 L15,6.3 Z M17,6.3 L17,8.7 L17,9 L18,9 L18,8.7 L18,6.3 L18,6 L17,6 L17,6.3 Z" id="Combined-Shape" fill="#000000"></path>
                                <path d="M170,6 L145.0033,6 C144.449193,6 144,6.44266033 144,6.99895656 L144,8.00104344 C144,8.55275191 144.451279,9 145.0033,9 L170,9 L170,6 L170,6 Z M170,4 L172,4 L172,6 L172,9 L172,11 L170,11 L145.0033,11 C143.348565,11 142,9.65919813 142,8.00104344 L142,6.99895656 C142,5.33629659 143.346377,4 145.0033,4 L170,4 Z M153,6.3 L153,8.7 L153,9 L154,9 L154,8.7 L154,6.3 L154,6 L153,6 L153,6.3 Z M155,6.3 L155,8.7 L155,9 L156,9 L156,8.7 L156,6.3 L156,6 L155,6 L155,6.3 Z M157,6.3 L157,8.7 L157,9 L158,9 L158,8.7 L158,6.3 L158,6 L157,6 L157,6.3 Z M159,6.3 L159,8.7 L159,9 L160,9 L160,8.7 L160,6.3 L160,6 L159,6 L159,6.3 Z" id="Combined-Shape" fill="#000000" transform="translate(157.000000, 7.500000) scale(-1, 1) translate(-157.000000, -7.500000) "></path>
                                <use id="Rectangle-25" stroke="#000000" mask="url(#mask-4)" stroke-width="4" fill="#FFFFFF" transform="translate(7.000000, 7.500000) scale(-1, 1) translate(-7.000000, -7.500000) " xlink:href="#path-3"></use>
                                <use id="Rectangle-25" stroke="#000000" mask="url(#mask-6)" stroke-width="4" fill="#FFFFFF" xlink:href="#path-5"></use>
                            </g>
                        </g>
                        <g>
                            <g>
                                <path d="M73.226865,38.8470511 L73.226865,38.8470511 L69.9121094,42.9904785 L103.101562,42.9904785 L99.8050239,38.8470511 C99.4660441,38.4209865 98.7397016,38.0668945 98.1912295,38.0668945 L74.8440895,38.0668945 C74.2907003,38.0668945 73.5715613,38.4161825 73.226865,38.8470511 L73.226865,38.8470511 Z M71.6651299,37.5976578 L71.6651299,37.5976578 C72.3894035,36.6923196 73.6831548,36.0668945 74.8440895,36.0668945 L98.1912295,36.0668945 C99.348496,36.0668945 100.651262,36.6983365 101.37011,37.6018581 L104.666649,41.7452856 L107.248546,44.9904785 L103.101562,44.9904785 L69.9121094,44.9904785 L65.7508489,44.9904785 L68.3503743,41.7410853 L71.6651299,37.5976578 Z" id="Rectangle-28" fill="#000000"></path>
                                <g id="Rectangle-22">
                                    <use fill="#FFFFFF" fill-rule="evenodd" xlink:href="#path-7"></use>
                                    <use stroke="#000000" mask="url(#mask-8)" stroke-width="4" xlink:href="#path-7"></use>
                                </g>
                                <path d="M30,4.33135049 L30,4.33135049 L30,11.0063207 C30,11.5585248 30.4500663,12 31.0052511,12 L44.2957746,12 C44.2957746,12 65.3861926,18.3697358 75.9314016,21.1296037 C79.4519203,22.0509858 82.056338,33 82.056338,33 L89.943662,33 C89.943662,33 91.7897671,22.874727 96.1549296,20.6 C105.816901,18.178125 127.901408,12 127.901408,12 L141.008614,12 C141.546883,12 142,11.5551146 142,11.0063207 L142,4.33135049 C142,3.7791464 141.559042,3.25565308 141.015093,3.15447855 L134.808219,2 L38,2 L30.980957,3.17364648 C30.4415101,3.26384682 30,3.78255659 30,4.33135049 L30,4.33135049 Z M28,4.33135049 L28,4.33135049 C28,2.80517912 29.1478662,1.45238951 30.6511184,1.20103236 L37.6701614,0.0273858796 L37.8339438,0 L38,0 L134.808219,0 L134.992638,0 L135.173947,0.0337234574 L141.380821,1.18820201 C142.869625,1.46511967 144,2.81310876 144,4.33135049 L144,11.0063207 C144,12.6583481 142.65281,14 141.008614,14 L127.901408,14 L128.44022,13.9260534 C128.373041,13.9448466 128.373041,13.9448466 128.05512,14.0336527 C127.61993,14.1551323 127.377136,14.2228556 126.96641,14.3372934 C125.793089,14.6642079 124.48251,15.0284633 123.067079,15.42073 C119.02281,16.5415415 114.948229,17.662377 111.102347,18.708659 C110.718282,18.813117 110.718282,18.813117 110.333998,18.9175199 C104.518447,20.4970493 99.8223465,21.7425969 96.6412068,22.5399831 L97.0791835,22.3736276 C95.9159697,22.9797892 94.7089998,24.7538132 93.6767102,27.3211268 C93.1478497,28.6364075 92.7002901,30.0609208 92.3357014,31.4874312 C92.2077993,31.9878683 92.0997198,32.4516472 92.011195,32.8658543 C91.9592253,33.1090204 91.9260243,33.2775727 91.9112255,33.3587389 L91.6119802,35 L89.943662,35 L82.056338,35 L80.476271,35 L80.1106259,33.4628222 C80.0916206,33.3829236 80.0515988,33.2217791 79.9915676,32.9912012 C79.8899109,32.6007409 79.770195,32.1641193 79.6334903,31.6932573 C79.2437289,30.350773 78.7981323,29.0098148 78.3077647,27.7691631 C77.2217583,25.0215189 76.0330413,23.2235664 75.4250215,23.0644369 C72.183374,22.2160403 67.7755463,20.9834794 62.4882705,19.4576449 C62.0926761,19.3434818 61.69302,19.2279227 61.2894822,19.1110244 C57.3650335,17.9741758 53.2299546,16.7564141 49.1407888,15.5386891 C47.7096664,15.1125109 46.3864431,14.7167598 45.2032296,14.3615662 C44.7890024,14.2372176 44.4218281,14.1268099 44.1057216,14.0316096 C43.7853765,13.9350753 43.7853765,13.9350753 43.7175311,13.9145846 L44.2957746,14 L31.0052511,14 C29.3505001,14 28,12.6682106 28,11.0063207 L28,4.33135049 Z" id="Rectangle-23" fill="#000000"></path>
                                <path d="M28,6 L3.00329963,6 C2.44919255,6 2,6.44266033 2,6.99895656 L2,8.00104344 C2,8.55275191 2.45127869,9 3.00329963,9 L28,9 L28,6 L28,6 Z M28,4 L30,4 L30,6 L30,9 L30,11 L28,11 L3.00329963,11 C1.34856525,11 0,9.65919813 0,8.00104344 L0,6.99895656 C0,5.33629659 1.34637737,4 3.00329963,4 L28,4 Z M11,6.3 L11,8.7 L11,9 L12,9 L12,8.7 L12,6.3 L12,6 L11,6 L11,6.3 Z M13,6.3 L13,8.7 L13,9 L14,9 L14,8.7 L14,6.3 L14,6 L13,6 L13,6.3 Z M15,6.3 L15,8.7 L15,9 L16,9 L16,8.7 L16,6.3 L16,6 L15,6 L15,6.3 Z M17,6.3 L17,8.7 L17,9 L18,9 L18,8.7 L18,6.3 L18,6 L17,6 L17,6.3 Z" id="Combined-Shape" fill="#000000"></path>
                                <path d="M170,6 L145.0033,6 C144.449193,6 144,6.44266033 144,6.99895656 L144,8.00104344 C144,8.55275191 144.451279,9 145.0033,9 L170,9 L170,6 L170,6 Z M170,4 L172,4 L172,6 L172,9 L172,11 L170,11 L145.0033,11 C143.348565,11 142,9.65919813 142,8.00104344 L142,6.99895656 C142,5.33629659 143.346377,4 145.0033,4 L170,4 Z M153,6.3 L153,8.7 L153,9 L154,9 L154,8.7 L154,6.3 L154,6 L153,6 L153,6.3 Z M155,6.3 L155,8.7 L155,9 L156,9 L156,8.7 L156,6.3 L156,6 L155,6 L155,6.3 Z M157,6.3 L157,8.7 L157,9 L158,9 L158,8.7 L158,6.3 L158,6 L157,6 L157,6.3 Z M159,6.3 L159,8.7 L159,9 L160,9 L160,8.7 L160,6.3 L160,6 L159,6 L159,6.3 Z" id="Combined-Shape" fill="#000000" transform="translate(157.000000, 7.500000) scale(-1, 1) translate(-157.000000, -7.500000) "></path>
                                <use id="Rectangle-25" stroke="#000000" mask="url(#mask-10)" stroke-width="4" fill="#FFFFFF" transform="translate(7.000000, 7.500000) scale(-1, 1) translate(-7.000000, -7.500000) " xlink:href="#path-9"></use>
                                <use id="Rectangle-25" stroke="#000000" mask="url(#mask-12)" stroke-width="4" fill="#FFFFFF" xlink:href="#path-11"></use>
                            </g>
                        </g>
                    </g>
                </g>
            </g>
        </g>
    </g>
</svg>